<?xml version="1.0" encoding="utf-8"?>
<!-- Generator: Adobe Illustrator 19.0.0, SVG Export Plug-In . SVG Version: 6.00 Build 0)  -->
<svg version="1.1" id="Layer_1" xmlns="http://www.w3.org/2000/svg" xmlns:xlink="http://www.w3.org/1999/xlink" x="0px" y="0px"
	 width="552.9px" height="169.4px" viewBox="0 0 552.9 169.4" style="enable-background:new 0 0 552.9 169.4;" xml:space="preserve"
	>
<style type="text/css">
	.st0{fill:url(#SVGID_1_);}
	.st1{fill:#FFFFFF;}
	.st2{fill:url(#SVGID_2_);}
	.st3{fill:url(#SVGID_3_);}
	.st4{fill:url(#SVGID_4_);}
	.st5{fill:url(#SVGID_5_);}
	.st6{fill:url(#SVGID_6_);}
	.st7{fill:url(#SVGID_7_);}
	.st8{fill:url(#SVGID_8_);}
	.st9{fill:url(#SVGID_9_);}
	.st10{fill:url(#SVGID_10_);}
	.st11{fill:#AAAAB3;}
	.st12{fill:url(#SVGID_11_);}
	.st13{fill:url(#SVGID_12_);}
	.st14{fill:url(#SVGID_13_);}
	.st15{fill:url(#SVGID_14_);}
	.st16{fill:url(#SVGID_15_);}
	.st17{fill:url(#SVGID_16_);}
	.st18{fill:url(#SVGID_17_);}
	.st19{fill:url(#SVGID_18_);}
	.st20{fill:#D0E0F3;}
	.st21{fill:#051F3C;}
	.st22{fill:url(#SVGID_19_);}
	.st23{fill:url(#SVGID_20_);}
	.st24{fill:url(#SVGID_21_);}
	.st25{fill:url(#SVGID_22_);}
	.st26{fill:url(#SVGID_23_);}
	.st27{fill:url(#SVGID_24_);}
	.st28{fill:#2F4DA0;}
	.st29{fill:url(#SVGID_25_);}
	.st30{fill:url(#SVGID_26_);}
	.st31{fill:url(#SVGID_27_);}
	.st32{fill:url(#SVGID_28_);}
	.st33{fill:url(#SVGID_29_);}
	.st34{fill:url(#SVGID_30_);}
	.st35{fill:url(#SVGID_31_);}
	.st36{fill:url(#SVGID_32_);}
	.st37{fill:url(#SVGID_33_);}
	.st38{fill:url(#SVGID_34_);}
	.st39{fill:url(#SVGID_35_);}
	.st40{fill:url(#SVGID_36_);}
	.st41{fill:url(#SVGID_37_);}
	.st42{fill:url(#SVGID_38_);}
	.st43{fill:url(#SVGID_39_);}
	.st44{fill:url(#SVGID_40_);}
</style>
<linearGradient id="SVGID_1_" gradientUnits="userSpaceOnUse" x1="3" y1="86.1762" x2="552.8815" y2="86.1762">
	<stop  offset="0" style="stop-color:#D0232A"/>
	<stop  offset="0.5" style="stop-color:#EC1C24"/>
	<stop  offset="1" style="stop-color:#F37F5F"/>
</linearGradient>
<path class="st0" d="M552.9,33.8H150.5C135.2,16.8,112,3,86,3C40.2,3,3,40.2,3,86s37.2,83.4,83,83.4c27,0,50.9-11.5,66.1-32.5h374.5
	L552.9,33.8z M86,163.7c-42.9,0-77.8-34.9-77.8-77.8S43.1,8.1,86,8.1c42.9,0,77.8,34.9,77.8,77.8S128.9,163.7,86,163.7z"/>
<image style="display:none;overflow:visible;opacity:0.42;" width="3300" height="2550" xlink:href="2E55299F15CA1461.jpg"  transform="matrix(0.24 0 0 0.24 -1142.6145 -185.6538)">
</image>
<path class="st1" d="M549.9,30.8H147.5C132.2,13.8,109,0,83,0C37.2,0,0,37.2,0,83s37.2,83.4,83,83.4c27,0,50.9-11.5,66.1-32.5h374.5
	L549.9,30.8z M83,160.7c-42.9,0-77.8-34.9-77.8-77.8S40.1,5.1,83,5.1c42.9,0,77.8,34.9,77.8,77.8S125.9,160.7,83,160.7z"/>
<g>
	<linearGradient id="SVGID_2_" gradientUnits="userSpaceOnUse" x1="203.8712" y1="110.9299" x2="227.504" y2="-5.9214">
		<stop  offset="0" style="stop-color:#D0232A"/>
		<stop  offset="0.5" style="stop-color:#EC1C24"/>
		<stop  offset="1" style="stop-color:#F37F5F"/>
	</linearGradient>
	<path class="st2" d="M215.3,77.5l3.5-16.4c0.1-0.7,0.2-1.4,0.4-1.9c0.1-0.6,0.2-1,0.2-1.5c0-1-0.3-1.6-0.9-1.9
		c-0.6-0.3-1.5-0.5-2.8-0.5c-1,0-1.8,0.1-2.4,0.2c-0.6,0.2-1.1,0.4-1.6,0.9c-0.4,0.4-0.8,1-1.1,1.8c-0.3,0.8-0.5,1.7-0.8,2.9
		l-9.3,43.8c-0.4,1.6-0.6,2.8-0.6,3.5c0,1,0.3,1.7,0.8,2c0.6,0.3,1.5,0.5,2.9,0.5c0.9,0,1.7-0.1,2.3-0.2c0.6-0.2,1.1-0.4,1.6-0.9
		c0.4-0.4,0.8-1,1-1.8c0.2-0.8,0.5-1.8,0.8-3.1l3.6-16.8h10.2l-3.6,16.8c-0.7,3.4-1.5,6.1-2.3,8.1c-0.8,2-1.9,3.6-3.2,4.6
		c-1.3,1.1-3,1.8-5,2.1c-2,0.3-4.5,0.5-7.4,0.5c-2.3,0-4.3-0.1-6-0.3c-1.7-0.2-3-0.5-4-1s-1.7-1.2-2.2-2.2s-0.7-2.2-0.7-3.7
		c0-2,0.4-4.7,1.1-8.2l9.3-43.8c0.7-3.3,1.5-6,2.4-8c0.9-2,2-3.6,3.4-4.6c1.4-1.1,3.1-1.8,5.1-2.1c2-0.3,4.5-0.5,7.5-0.5
		c2.2,0,4.1,0.1,5.7,0.3c1.6,0.2,2.9,0.5,3.9,1c1,0.5,1.7,1.2,2.2,2.2c0.5,1,0.7,2.2,0.7,3.8c0,2-0.4,4.7-1.1,8l-3.5,16.4H215.3z"/>
	<linearGradient id="SVGID_3_" gradientUnits="userSpaceOnUse" x1="238.8952" y1="118.0134" x2="262.5281" y2="1.1621">
		<stop  offset="0" style="stop-color:#D0232A"/>
		<stop  offset="0.5" style="stop-color:#EC1C24"/>
		<stop  offset="1" style="stop-color:#F37F5F"/>
	</linearGradient>
	<path class="st3" d="M242.7,119.3l3.4-16.2h-8.9l-3.4,16.2h-10.3l12.3-58.2c0.7-3.4,1.5-6,2.3-8c0.8-2,1.9-3.5,3.3-4.6
		c1.3-1.1,3-1.8,5-2.1c2-0.3,4.5-0.5,7.5-0.5c2.3,0,4.2,0.1,5.8,0.3c1.6,0.2,2.9,0.6,3.9,1.1c1,0.6,1.7,1.3,2.2,2.3s0.7,2.2,0.7,3.8
		c0,1.9-0.3,4.5-1,7.7l-12.3,58.2H242.7z M251.8,55.3c-0.9,0-1.7,0.1-2.3,0.2c-0.6,0.2-1.2,0.4-1.6,0.8c-0.4,0.4-0.7,1-1,1.7
		c-0.3,0.8-0.5,1.8-0.8,3L239,94.5h8.9l7.1-33.4c0.3-1.4,0.5-2.4,0.5-3c0-1.1-0.3-1.8-0.8-2.2C254.1,55.5,253.2,55.3,251.8,55.3z"/>
	<linearGradient id="SVGID_4_" gradientUnits="userSpaceOnUse" x1="275.8058" y1="125.4784" x2="299.4387" y2="8.6272">
		<stop  offset="0" style="stop-color:#D0232A"/>
		<stop  offset="0.5" style="stop-color:#EC1C24"/>
		<stop  offset="1" style="stop-color:#F37F5F"/>
	</linearGradient>
	<path class="st4" d="M281.4,119.3L279.9,74h-0.4l-9.6,45.3h-9.1l15.3-72.6h11.5l0.8,46.6h0.4l9.8-46.6h9.2l-15.3,72.6H281.4z"/>
	<linearGradient id="SVGID_5_" gradientUnits="userSpaceOnUse" x1="312.4279" y1="132.8851" x2="336.0607" y2="16.0339">
		<stop  offset="0" style="stop-color:#D0232A"/>
		<stop  offset="0.5" style="stop-color:#EC1C24"/>
		<stop  offset="1" style="stop-color:#F37F5F"/>
	</linearGradient>
	<path class="st5" d="M328.3,77.5l3.5-16.4c0.1-0.7,0.2-1.4,0.4-1.9c0.1-0.6,0.2-1,0.2-1.5c0-1-0.3-1.6-0.9-1.9
		c-0.6-0.3-1.5-0.5-2.8-0.5c-1,0-1.8,0.1-2.4,0.2c-0.6,0.2-1.1,0.4-1.6,0.9c-0.4,0.4-0.8,1-1.1,1.8c-0.3,0.8-0.5,1.7-0.8,2.9
		l-9.3,43.8c-0.4,1.6-0.6,2.8-0.6,3.5c0,1,0.3,1.7,0.8,2c0.6,0.3,1.5,0.5,2.9,0.5c0.9,0,1.7-0.1,2.3-0.2c0.6-0.2,1.1-0.4,1.6-0.9
		c0.4-0.4,0.8-1,1-1.8c0.2-0.8,0.5-1.8,0.8-3.1l3.6-16.8h10.2l-3.6,16.8c-0.7,3.4-1.5,6.1-2.3,8.1c-0.8,2-1.9,3.6-3.2,4.6
		c-1.3,1.1-3,1.8-5,2.1c-2,0.3-4.5,0.5-7.4,0.5c-2.3,0-4.3-0.1-6-0.3c-1.7-0.2-3-0.5-4-1s-1.7-1.2-2.2-2.2s-0.7-2.2-0.7-3.7
		c0-2,0.4-4.7,1.1-8.2l9.3-43.8c0.7-3.3,1.5-6,2.4-8c0.9-2,2-3.6,3.4-4.6c1.4-1.1,3.1-1.8,5.1-2.1c2-0.3,4.5-0.5,7.5-0.5
		c2.2,0,4.1,0.1,5.7,0.3c1.6,0.2,2.9,0.5,3.9,1c1,0.5,1.7,1.2,2.2,2.2c0.5,1,0.7,2.2,0.7,3.8c0,2-0.4,4.7-1.1,8l-3.5,16.4H328.3z"/>
	<linearGradient id="SVGID_6_" gradientUnits="userSpaceOnUse" x1="343.6756" y1="139.2049" x2="367.3085" y2="22.3537">
		<stop  offset="0" style="stop-color:#D0232A"/>
		<stop  offset="0.5" style="stop-color:#EC1C24"/>
		<stop  offset="1" style="stop-color:#F37F5F"/>
	</linearGradient>
	<path class="st6" d="M357.8,119.3H337l15.3-72.6H373l-1.8,8.7h-10.1L358.9,66h9.8l-1.8,8.4h-9.8l-7.5,35.8h10.2L357.8,119.3z"/>
	<linearGradient id="SVGID_7_" gradientUnits="userSpaceOnUse" x1="369.6902" y1="144.4663" x2="393.3231" y2="27.6151">
		<stop  offset="0" style="stop-color:#D0232A"/>
		<stop  offset="0.5" style="stop-color:#EC1C24"/>
		<stop  offset="1" style="stop-color:#F37F5F"/>
	</linearGradient>
	<path class="st7" d="M385.4,119.3H364l15.3-72.6h10.6l-13.4,63.4h10.8L385.4,119.3z"/>
	<linearGradient id="SVGID_8_" gradientUnits="userSpaceOnUse" x1="395.2866" y1="149.6431" x2="418.9195" y2="32.7918">
		<stop  offset="0" style="stop-color:#D0232A"/>
		<stop  offset="0.5" style="stop-color:#EC1C24"/>
		<stop  offset="1" style="stop-color:#F37F5F"/>
	</linearGradient>
	<path class="st8" d="M412.1,119.3h-21.4L406,46.7h10.6l-13.4,63.4H414L412.1,119.3z"/>
	<linearGradient id="SVGID_9_" gradientUnits="userSpaceOnUse" x1="420.8121" y1="154.8056" x2="444.4449" y2="37.9543">
		<stop  offset="0" style="stop-color:#D0232A"/>
		<stop  offset="0.5" style="stop-color:#EC1C24"/>
		<stop  offset="1" style="stop-color:#F37F5F"/>
	</linearGradient>
	<path class="st9" d="M438.1,119.3h-20.8l15.3-72.6h20.7l-1.8,8.7h-10.1L439.2,66h9.8l-1.8,8.4h-9.8l-7.5,35.8H440L438.1,119.3z"/>
	<linearGradient id="SVGID_10_" gradientUnits="userSpaceOnUse" x1="451.2876" y1="160.9691" x2="474.9204" y2="44.1179">
		<stop  offset="0" style="stop-color:#D0232A"/>
		<stop  offset="0.5" style="stop-color:#EC1C24"/>
		<stop  offset="1" style="stop-color:#F37F5F"/>
	</linearGradient>
	<path class="st10" d="M477.7,104.4c-0.7,3.2-1.4,5.8-2.3,7.8c-0.8,2-1.9,3.5-3.3,4.5c-1.3,1-3,1.7-5.1,2.1c-2,0.3-4.6,0.5-7.7,0.5
		h-15.1l15.3-72.6h15.1c2.4,0,4.4,0.1,6.1,0.3c1.7,0.2,3,0.5,4,1.1c1,0.5,1.8,1.2,2.2,2.2c0.5,0.9,0.7,2.1,0.7,3.7
		c0,1-0.1,2.2-0.3,3.4c-0.2,1.2-0.4,2.6-0.7,4.2L477.7,104.4z M476.1,61.5c0.1-0.7,0.2-1.3,0.3-1.8c0.1-0.5,0.1-1,0.1-1.4
		c0-1-0.3-1.6-0.8-1.9c-0.6-0.3-1.5-0.5-2.9-0.5h-4.5l-11.5,54.3h4.5c1,0,1.8-0.1,2.4-0.2c0.6-0.2,1.1-0.4,1.5-0.8
		c0.4-0.4,0.7-1,1-1.7c0.3-0.8,0.5-1.8,0.8-3L476.1,61.5z"/>
</g>
<g>
	<g>
		<g>
			<path class="st11" d="M137.4,76.1c-1.4-1-3.1-1.7-4.8-2.2c0-0.4-0.1-0.7-0.2-0.9c-0.8-3.8-2.9-7.1-5.7-9.6
				c-3.1-2.7-8.5-4.7-12.7-4.7c-0.3,0-0.5,0-0.8,0c-0.6-2.3-1.5-4.5-2.6-6.6c0,0,0.1,0,0.1,0c-0.4-0.7-0.8-1.4-1.2-2.1
				c-0.1-0.1-0.1-0.2-0.1-0.3c-5.2-7.9-14.1-13.1-24.3-13.1c-10.2,0-19.1,5.2-24.3,13.1c-0.4,0.5-0.7,1.1-1,1.6l-0.5-0.1
				c-2.6-1-5.4-1.6-8.6-1.5c-5,0-9.6,1.5-13.5,4c-6.1,4-10.1,10.8-10.1,18.4c0,0,0,0,0,0c0,0,0,0,0,0c0,7.6,4,14.3,10.1,18.4
				c1.9,1.2,4,2.2,6.2,2.9c0.1,0,0.3,0.1,0.4,0.1c1,0.3,1.9,0.5,2.9,0.7c0.2,0,0.5,0.1,0.7,0.1c0.6,0.1,1.1,0.2,1.7,0.2
				c0,0,0-0.1,0-0.1c0.5,0,1,0.1,1.5,0.1H51h18h1.7c0.6,2.7,2,5,4,6.8c0.6,0.5,1.2,0.9,1.9,1.3c0.2,0.1,0.3,0.2,0.5,0.3
				c0.5,0.3,1,0.5,1.6,0.7c0.3,0.1,0.6,0.2,0.9,0.3c0.3,0.1,0.5,0.2,0.8,0.2l-5.2,3.7c-1.3,1-2.8,2.1-3.6,3.8
				c-1.2,2.8-0.1,6.1,2.5,7.3l0.1,0c2.6,1.2,5.8,0,7.2-2.8c0.3-0.5,0.4-1.1,0.5-1.6c0.3-1.3,0.2-2.6,0.2-3.8l-0.4-6.5
				c0.1,0,0.2,0,0.3,0c0.4,0,0.7,0.1,1.1,0.1c0,0,0,0,0,0c0.2,0,0.3,0,0.5,0H84h7.3c-0.5,0.5-1,1.1-1.3,1.7c-1,2.3-0.1,4.9,2,5.9
				l0.1,0c2.1,1,4.7,0,5.8-2.2c0.3-0.7,0.5-1.4,0.5-2.1c0.1-0.8,0.1-1.5,0.1-2.2l-0.1-1.1h5.6h0h0h0.1h0h0h9.5l-8.2,5.9
				c-1.7,1.3-3.8,2.8-4.8,5.1c-1.7,3.8-0.2,8.1,3.3,9.8l0.1,0c3.5,1.6,7.8,0,9.6-3.7c0.3-0.7,0.5-1.4,0.7-2.2c0.4-1.7,0.3-3.5,0.3-5
				l-0.6-9.7l-0.2,0.1l0-0.3h6.5c-0.6,1.8,0.1,3.7,1.7,4.5l0.1,0c1.8,0.8,3.9,0,4.8-1.8c0.3-0.6,0.4-1.2,0.4-1.8c0-0.3,0-0.6,0-0.9
				h0.4h0.2c3.5,0,6.8-1,9.4-2.8c4.3-2.8,7.1-7.5,7.1-12.9C144.5,83.6,141.7,78.9,137.4,76.1z"/>
		</g>
		<g>
			<path class="st11" d="M81.6,126l-0.2,0.1l0-0.4l-8.4,6c-1.7,1.3-3.8,2.8-4.8,5.1c-1.7,3.8-0.2,8.1,3.3,9.8l0.1,0.1
				c3.5,1.6,7.8,0,9.6-3.7c0.3-0.7,0.5-1.4,0.7-2.2c0.4-1.7,0.3-3.5,0.3-5L81.6,126z"/>
		</g>
		<g>
			<path class="st11" d="M94.7,120.1l0-0.2l-4.2,3c-0.8,0.6-1.9,1.4-2.4,2.6c-0.8,1.9-0.1,4,1.7,4.9l0.1,0c1.8,0.8,3.9,0,4.8-1.8
				c0.3-0.6,0.4-1.2,0.4-1.8c0.1-0.6,0.1-1.2,0-1.8L94.7,120.1L94.7,120.1z"/>
		</g>
		<g>
			<path class="st11" d="M65.7,121.1l0-0.3l-5,3.6c-1,0.8-2.3,1.7-2.9,3.1c-1,2.3-0.1,4.9,2,5.8l0.1,0c2.1,1,4.7,0,5.8-2.2
				c0.3-0.7,0.5-1.4,0.5-2.1c0.1-0.8,0.1-1.5,0.1-2.2L65.7,121.1L65.7,121.1z"/>
		</g>
	</g>
	<g>
		<g>
			<g>
				<linearGradient id="SVGID_11_" gradientUnits="userSpaceOnUse" x1="87.6715" y1="24.1835" x2="87.6714" y2="24.1831">
					<stop  offset="0" style="stop-color:#19182A"/>
					<stop  offset="9.651433e-02" style="stop-color:#222133"/>
					<stop  offset="0.2532" style="stop-color:#39394A"/>
					<stop  offset="0.4506" style="stop-color:#5F6070"/>
					<stop  offset="0.6809" style="stop-color:#9397A4"/>
					<stop  offset="0.9361" style="stop-color:#D5DCE6"/>
					<stop  offset="1" style="stop-color:#E7EEF8"/>
				</linearGradient>
				<path class="st12" d="M87.7,24.2L87.7,24.2C87.7,24.2,87.7,24.2,87.7,24.2C87.7,24.2,87.7,24.2,87.7,24.2z"/>
			</g>
			<linearGradient id="SVGID_12_" gradientUnits="userSpaceOnUse" x1="69.3957" y1="74.5431" x2="69.3957" y2="74.5428">
				<stop  offset="0" style="stop-color:#19182A"/>
				<stop  offset="9.651433e-02" style="stop-color:#222133"/>
				<stop  offset="0.2532" style="stop-color:#39394A"/>
				<stop  offset="0.4506" style="stop-color:#5F6070"/>
				<stop  offset="0.6809" style="stop-color:#9397A4"/>
				<stop  offset="0.9361" style="stop-color:#D5DCE6"/>
				<stop  offset="1" style="stop-color:#E7EEF8"/>
			</linearGradient>
			<path class="st13" d="M69.4,74.5L69.4,74.5L69.4,74.5C69.4,74.5,69.4,74.5,69.4,74.5z"/>
			<linearGradient id="SVGID_13_" gradientUnits="userSpaceOnUse" x1="48.627" y1="59.481" x2="48.627" y2="59.4807">
				<stop  offset="0" style="stop-color:#19182A"/>
				<stop  offset="9.651433e-02" style="stop-color:#222133"/>
				<stop  offset="0.2532" style="stop-color:#39394A"/>
				<stop  offset="0.4506" style="stop-color:#5F6070"/>
				<stop  offset="0.6809" style="stop-color:#9397A4"/>
				<stop  offset="0.9361" style="stop-color:#D5DCE6"/>
				<stop  offset="1" style="stop-color:#E7EEF8"/>
			</linearGradient>
			<path class="st14" d="M48.6,59.5C48.6,59.5,48.6,59.5,48.6,59.5L48.6,59.5L48.6,59.5z"/>
			<linearGradient id="SVGID_14_" gradientUnits="userSpaceOnUse" x1="48.627" y1="59.481" x2="48.627" y2="59.4807">
				<stop  offset="0" style="stop-color:#19182A"/>
				<stop  offset="9.651433e-02" style="stop-color:#222133"/>
				<stop  offset="0.2532" style="stop-color:#39394A"/>
				<stop  offset="0.4506" style="stop-color:#5F6070"/>
				<stop  offset="0.6809" style="stop-color:#9397A4"/>
				<stop  offset="0.9361" style="stop-color:#D5DCE6"/>
				<stop  offset="1" style="stop-color:#E7EEF8"/>
			</linearGradient>
			<path class="st15" d="M48.6,59.5C48.6,59.5,48.6,59.5,48.6,59.5L48.6,59.5L48.6,59.5z"/>
			<g>
				<linearGradient id="SVGID_15_" gradientUnits="userSpaceOnUse" x1="85.0355" y1="91.947" x2="85.0355" y2="91.9467">
					<stop  offset="0" style="stop-color:#19182A"/>
					<stop  offset="0.1119" style="stop-color:#212133"/>
					<stop  offset="0.2934" style="stop-color:#37394B"/>
					<stop  offset="0.522" style="stop-color:#5A6072"/>
					<stop  offset="0.786" style="stop-color:#8A95A8"/>
					<stop  offset="1" style="stop-color:#B6C6D9"/>
				</linearGradient>
				<path class="st16" d="M85,91.9L85,91.9L85,91.9C85,91.9,85,91.9,85,91.9z"/>
				<linearGradient id="SVGID_16_" gradientUnits="userSpaceOnUse" x1="80.6521" y1="121.8502" x2="79.5226" y2="33.3736">
					<stop  offset="0.319" style="stop-color:#005494"/>
					<stop  offset="0.816" style="stop-color:#87B8DC"/>
				</linearGradient>
				<path class="st17" d="M126.7,60.8c-3.1-2.7-8.5-4.7-12.7-4.7c-0.3,0-0.5,0-0.8,0c-0.8-3.2-2.1-6.3-3.9-9
					C104.2,39.2,95.2,34,85,34c-10.2,0-19.1,5.2-24.3,13.1c-0.4,0.5-0.7,1.1-1,1.6l-0.5-0.1c-2.6-1-5.4-1.6-8.6-1.5
					c-5,0-9.6,1.5-13.5,4c-6.1,4-10.1,10.8-10.1,18.4s4,14.3,10.1,18.4c3.8,2.5,8.5,4,13.5,4H85h29c4.9,0,9.3-1.8,12.7-4.7
					c3.8-3.3,6.2-8,6.2-13.3S130.5,64.1,126.7,60.8z"/>
			</g>
			<g>
				<linearGradient id="SVGID_17_" gradientUnits="userSpaceOnUse" x1="84.9313" y1="91.9469" x2="84.9313" y2="91.9469">
					<stop  offset="0" style="stop-color:#19182A"/>
					<stop  offset="0.1112" style="stop-color:#1E1D2F"/>
					<stop  offset="0.2448" style="stop-color:#2C2C3C"/>
					<stop  offset="0.39" style="stop-color:#434453"/>
					<stop  offset="0.5435" style="stop-color:#636672"/>
					<stop  offset="0.7035" style="stop-color:#8D929B"/>
					<stop  offset="0.8664" style="stop-color:#BFC6CC"/>
					<stop  offset="1" style="stop-color:#EDF7F9"/>
				</linearGradient>
				<path class="st18" d="M84.9,91.9L84.9,91.9C84.9,91.9,84.9,91.9,84.9,91.9C84.9,91.9,84.9,91.9,84.9,91.9z"/>
				<linearGradient id="SVGID_18_" gradientUnits="userSpaceOnUse" x1="79.9845" y1="97.5031" x2="79.9585" y2="35.8427">
					<stop  offset="0" style="stop-color:#092342"/>
					<stop  offset="0.1577" style="stop-color:#305172"/>
					<stop  offset="0.4227" style="stop-color:#6E9BBE"/>
					<stop  offset="0.5451" style="stop-color:#87B8DC"/>
					<stop  offset="1" style="stop-color:#FFFFFF"/>
				</linearGradient>
				<path class="st19" d="M126.1,61.5c-3.1-2.7-8.3-4.6-12.5-4.6c-0.3,0-0.5,0-0.8,0c-0.8-3.2-2.1-6.1-3.9-8.8
					c-5.1-7.7-13.9-12.8-24-12.8s-18.9,5.1-24,12.8c-0.3,0.5-0.7,1.1-1,1.6l-0.5-0.1c-2.6-1-5.3-1.6-8.5-1.5
					c-4.9,0-9.5,1.5-13.3,3.9c-6,4-9.9,10.5-9.9,17.9c0,7.4,3.9,14,9.9,17.9c3.8,2.5,8.3,3.9,13.3,3.9h33.9h28.7
					c4.8,0,9.2-1.7,12.5-4.6c3.7-3.2,6.1-7.8,6.1-12.9C132.1,69.3,129.8,64.7,126.1,61.5z M125.1,87c-3.2,2.7-7.5,4.4-12.2,4.4h-28
					c0,0,0,0,0,0c0,0,0,0,0,0H51.7c-4.8,0-9.3-1.4-13-3.8c-5.9-3.8-9.7-10.1-9.7-17.2c0-7.1,3.8-13.4,9.7-17.2
					c3.7-2.4,8.2-3.8,13-3.8c3.1-0.1,5.7,0.5,8.3,1.4l0.5,0.1c0.3-0.5,0.6-1,1-1.5c5-7.4,13.6-12.3,23.5-12.3
					c9.8,0,18.5,4.9,23.5,12.3c1.7,2.5,3,5.4,3.8,8.4c0.3,0,0.5,0,0.8,0c4.1,0,9.3,1.8,12.2,4.4c3.6,3.1,5.9,7.5,5.9,12.4
					C131,79.5,128.8,84,125.1,87z"/>
			</g>
			<path class="st20" d="M58,66.2c3.8-2.5,8.5-4,13.5-4c3.2-0.1,5.9,0.5,8.6,1.5l0.5,0.1c0.3-0.6,0.6-1.1,1-1.6
				c5.2-7.9,14.1-13.1,24.3-13.1c1.7,0,3.3,0.1,4.9,0.4c-0.4-0.8-0.9-1.6-1.4-2.4C104.2,39.2,95.2,34,85,34
				c-10.2,0-19.1,5.2-24.3,13.1c-0.4,0.5-0.7,1.1-1,1.6l-0.5-0.1c-2.6-1-5.4-1.6-8.6-1.5c-5,0-9.6,1.5-13.5,4
				c-6.1,4.1-10.1,10.8-10.1,18.4c0,7.6,4,14.3,10.1,18.4c3.4,2.3,7.5,3.7,12,4c-0.8-2.3-1.3-4.7-1.3-7.3C47.9,77,51.9,70.3,58,66.2
				z"/>
		</g>
		<g>
			<path class="st21" d="M101.6,100.1L101.6,100.1C101.6,100.1,101.6,100.1,101.6,100.1C101.6,100.1,101.6,100.1,101.6,100.1z"/>
			<path class="st21" d="M72.5,78.2c2.2-1.9,5.9-3.3,8.9-3.3c0.2,0,0.4,0,0.6,0c0.6-2.3,1.5-4.4,2.7-6.3c3.6-5.5,9.9-9.2,17-9.2
				c7.1,0,13.4,3.7,17,9.2c0.2,0.4,0.5,0.7,0.7,1.1l0.3-0.1c1.8-0.7,3.8-1.1,6-1.1c2.4,0,4.6,0.3,6.6,1.3c0.5,0.2,0.3,2.8,0.6,3.4
				c2,4.7,9.3,5.7,9.3,11c0,5.3-2.8,10-7.1,12.9c-2.7,1.8-5.9,2.8-9.4,2.8h-24H81.3c-3.4,0-8.5-8.1-8.5-8.1H69
				c-0.6-1.4-0.9-2.9-0.9-4.4C68.1,83.8,69.8,80.5,72.5,78.2z"/>
		</g>
		<g>
			<g>
				
					<linearGradient id="SVGID_19_" gradientUnits="userSpaceOnUse" x1="603.8146" y1="54.5368" x2="603.8146" y2="54.5366" gradientTransform="matrix(-1 0 0 1 705.9289 0)">
					<stop  offset="0" style="stop-color:#19182A"/>
					<stop  offset="9.651433e-02" style="stop-color:#222133"/>
					<stop  offset="0.2532" style="stop-color:#39394A"/>
					<stop  offset="0.4506" style="stop-color:#5F6070"/>
					<stop  offset="0.6809" style="stop-color:#9397A4"/>
					<stop  offset="0.9361" style="stop-color:#D5DCE6"/>
					<stop  offset="1" style="stop-color:#E7EEF8"/>
				</linearGradient>
				<path class="st22" d="M102.1,54.5L102.1,54.5C102.1,54.5,102.1,54.5,102.1,54.5C102.1,54.5,102.1,54.5,102.1,54.5z"/>
			</g>
			
				<linearGradient id="SVGID_20_" gradientUnits="userSpaceOnUse" x1="591.0244" y1="89.7923" x2="591.0244" y2="89.792" gradientTransform="matrix(-1 0 0 1 705.9289 0)">
				<stop  offset="0" style="stop-color:#19182A"/>
				<stop  offset="9.651433e-02" style="stop-color:#222133"/>
				<stop  offset="0.2532" style="stop-color:#39394A"/>
				<stop  offset="0.4506" style="stop-color:#5F6070"/>
				<stop  offset="0.6809" style="stop-color:#9397A4"/>
				<stop  offset="0.9361" style="stop-color:#D5DCE6"/>
				<stop  offset="1" style="stop-color:#E7EEF8"/>
			</linearGradient>
			<path class="st23" d="M114.9,89.8C114.9,89.8,114.9,89.8,114.9,89.8L114.9,89.8C114.9,89.8,114.9,89.8,114.9,89.8z"/>
			<g>
				
					<linearGradient id="SVGID_21_" gradientUnits="userSpaceOnUse" x1="601.9722" y1="101.9813" x2="601.9722" y2="101.981" gradientTransform="matrix(-1 0 0 1 705.9289 0)">
					<stop  offset="0" style="stop-color:#19182A"/>
					<stop  offset="0.1119" style="stop-color:#212133"/>
					<stop  offset="0.2934" style="stop-color:#37394B"/>
					<stop  offset="0.522" style="stop-color:#5A6072"/>
					<stop  offset="0.786" style="stop-color:#8A95A8"/>
					<stop  offset="1" style="stop-color:#B6C6D9"/>
				</linearGradient>
				<path class="st24" d="M103.9,102L103.9,102C104,102,104,102,103.9,102C104,102,103.9,102,103.9,102z"/>
				
					<linearGradient id="SVGID_22_" gradientUnits="userSpaceOnUse" x1="598.9014" y1="122.9157" x2="598.1106" y2="60.9757" gradientTransform="matrix(-1 0 0 1 705.9289 0)">
					<stop  offset="0.319" style="stop-color:#005494"/>
					<stop  offset="0.816" style="stop-color:#87B8DC"/>
				</linearGradient>
				<path class="st25" d="M74.8,80.2c2.2-1.9,5.9-3.3,8.9-3.3c0.2,0,0.4,0,0.6,0c0.6-2.3,1.5-4.4,2.7-6.3c3.6-5.5,9.9-9.2,17-9.2
					c7.1,0,13.4,3.7,17,9.2c0.2,0.4,0.5,0.8,0.7,1.1l0.3-0.1c1.8-0.7,3.8-1.1,6-1.1c3.5,0,6.8,1.1,9.4,2.8c4.3,2.8,7.1,7.5,7.1,12.9
					c0,5.3-2.8,10-7.1,12.9c-2.7,1.8-5.9,2.8-9.4,2.8h-24H83.6c-3.4,0-6.5-1.2-8.9-3.3c-2.6-2.3-4.3-5.6-4.3-9.3
					C70.5,85.8,72.1,82.4,74.8,80.2z"/>
			</g>
			<g>
				
					<linearGradient id="SVGID_23_" gradientUnits="userSpaceOnUse" x1="601.8995" y1="101.9812" x2="601.8995" y2="101.9812" gradientTransform="matrix(-1 0 0 1 705.9289 0)">
					<stop  offset="0" style="stop-color:#19182A"/>
					<stop  offset="0.1112" style="stop-color:#1E1D2F"/>
					<stop  offset="0.2448" style="stop-color:#2C2C3C"/>
					<stop  offset="0.39" style="stop-color:#434453"/>
					<stop  offset="0.5435" style="stop-color:#636672"/>
					<stop  offset="0.7035" style="stop-color:#8D929B"/>
					<stop  offset="0.8664" style="stop-color:#BFC6CC"/>
					<stop  offset="1" style="stop-color:#EDF7F9"/>
				</linearGradient>
				<path class="st26" d="M104,102L104,102C104,102,104,102,104,102L104,102z"/>
				
					<linearGradient id="SVGID_24_" gradientUnits="userSpaceOnUse" x1="598.4353" y1="105.8705" x2="598.4171" y2="62.7094" gradientTransform="matrix(-1 0 0 1 705.9289 0)">
					<stop  offset="0" style="stop-color:#092342"/>
					<stop  offset="0.1577" style="stop-color:#305172"/>
					<stop  offset="0.4227" style="stop-color:#6E9BBE"/>
					<stop  offset="0.5451" style="stop-color:#87B8DC"/>
					<stop  offset="1" style="stop-color:#FFFFFF"/>
				</linearGradient>
				<path class="st27" d="M71,89.7c0,3.6,1.6,6.8,4.2,9.1c2.3,2,5.4,3.2,8.8,3.2H104h23.7c3.5,0,6.7-1,9.3-2.7c4.2-2.8,7-7.4,7-12.6
					c0-5.2-2.7-9.8-7-12.6c-2.6-1.7-5.8-2.8-9.3-2.8c-2.2-0.1-4.1,0.4-5.9,1.1l-0.3,0.1c-0.2-0.4-0.4-0.7-0.7-1.1
					c-3.6-5.4-9.8-9-16.8-9c-7,0-13.2,3.6-16.8,9c-1.2,1.9-2.2,3.9-2.7,6.1c-0.2,0-0.4,0-0.6,0c-2.9,0-6.6,1.3-8.8,3.2
					C72.6,82.9,71,86.1,71,89.7z M71.8,89.9c0-3.4,1.6-6.5,4.2-8.7c2.1-1.8,5.7-3.1,8.6-3.1c0.2,0,0.4,0,0.6,0
					c0.5-2.1,1.4-4.1,2.6-5.9c3.5-5.2,9.6-8.6,16.4-8.6c6.9,0,12.9,3.4,16.4,8.6c0.2,0.3,0.5,0.7,0.7,1.1l0.3-0.1
					c1.8-0.6,3.6-1.1,5.8-1c3.4,0,6.5,1,9.1,2.6c4.1,2.7,6.8,7.1,6.8,12c0,5-2.7,9.4-6.8,12c-2.6,1.7-5.7,2.6-9.1,2.6h-23.2
					c0,0,0,0,0,0c0,0,0,0,0,0H84.5c-3.3,0-6.3-1.2-8.6-3.1C73.4,96.4,71.8,93.3,71.8,89.9z"/>
			</g>
			<path class="st20" d="M86.2,87.4c2.2-1.9,5.9-3.3,8.9-3.3c0.2,0,0.4,0,0.6,0c0.5-2.3,1.5-4.4,2.7-6.3c3.6-5.5,9.9-9.2,17-9.2
				c1.6,0,3.1,0.2,4.5,0.5c-3.7-4.7-9.5-7.8-16-7.8c-7.1,0-13.4,3.7-17,9.2c-1.2,1.9-2.2,4-2.7,6.3c-0.2,0-0.4,0-0.6,0
				c-3,0-6.7,1.4-8.9,3.3c-2.6,2.3-4.3,5.6-4.3,9.3c0,3.7,1.7,7,4.3,9.3c2.2,1.9,5.1,3.1,8.4,3.3c-0.8-1.6-1.2-3.4-1.2-5.3
				C81.9,93,83.6,89.7,86.2,87.4z"/>
		</g>
	</g>
	<g>
		<g>
			<path class="st28" d="M82.2,133.3L81.5,123l-8.4,6c-1.7,1.3-3.8,2.8-4.8,5.1c-1.7,3.8-0.2,8.1,3.3,9.8l0.1,0.1
				c3.5,1.6,7.8,0,9.6-3.7C82.4,138,82.3,135.4,82.2,133.3z"/>
			<linearGradient id="SVGID_25_" gradientUnits="userSpaceOnUse" x1="80.0537" y1="128.4504" x2="66.0603" y2="153.0867">
				<stop  offset="0" style="stop-color:#476EB2"/>
				<stop  offset="0.2178" style="stop-color:#7AA2D2"/>
				<stop  offset="0.3926" style="stop-color:#A5CFEE"/>
				<stop  offset="0.9018" style="stop-color:#BADFF5"/>
			</linearGradient>
			<path class="st29" d="M82.3,133.1l-0.6-9.7l-7.9,5.7c-1.6,1.2-3.5,2.7-4.5,4.8c-1.6,3.6-0.2,7.6,3.1,9.2l0.1,0
				c3.3,1.5,7.3,0,9-3.5C82.5,137.5,82.4,135,82.3,133.1z"/>
			<linearGradient id="SVGID_26_" gradientUnits="userSpaceOnUse" x1="70.8474" y1="143.5971" x2="86.9515" y2="105.38">
				<stop  offset="1.226990e-02" style="stop-color:#FFFFFF"/>
				<stop  offset="2.113004e-02" style="stop-color:#FCFDFE"/>
				<stop  offset="0.1158" style="stop-color:#DEEAF7"/>
				<stop  offset="0.2198" style="stop-color:#C6DBF1"/>
				<stop  offset="0.3376" style="stop-color:#B3D0EC"/>
				<stop  offset="0.4754" style="stop-color:#A6C7E9"/>
				<stop  offset="0.6517" style="stop-color:#9EC2E7"/>
				<stop  offset="1" style="stop-color:#9CC1E6"/>
			</linearGradient>
			<path class="st30" d="M74.8,128.7c-1.3,1-2.9,2.2-4,3.9c-1.7,2.9-1.6,6.2,0.4,7.5l0.1,0c2,1.2,5,0,6.8-2.9
				c1.1-1.7,1.5-3.7,1.8-5.3l1.4-7.9L74.8,128.7z"/>
			<g>
				<path class="st20" d="M71.6,139.7L71.6,139.7c-2-1.3-2.2-4.7-0.4-7.7c0.4-0.6,1.2-1.4,1.7-1.9c-0.6,0.6-1.6,1.5-2.1,2.3
					c-1.8,3-1.6,6.4,0.3,7.6l0.1,0c1.7,1,3.9,0.5,5.8-1.6C75.2,140.3,73.1,140.7,71.6,139.7z"/>
			</g>
		</g>
		<g>
			<path class="st28" d="M95,122.4l-0.4-5.2l-4.2,3c-0.8,0.6-1.9,1.4-2.4,2.6c-0.8,1.9-0.1,4,1.7,4.9l0.1,0c1.8,0.8,3.9,0,4.8-1.8
				C95.2,124.7,95.1,123.4,95,122.4z"/>
			<linearGradient id="SVGID_27_" gradientUnits="userSpaceOnUse" x1="93.9601" y1="119.9405" x2="86.9667" y2="132.2527">
				<stop  offset="0" style="stop-color:#476EB2"/>
				<stop  offset="0.2178" style="stop-color:#7AA2D2"/>
				<stop  offset="0.3926" style="stop-color:#A5CFEE"/>
				<stop  offset="0.9018" style="stop-color:#BADFF5"/>
			</linearGradient>
			<path class="st31" d="M95.1,122.2l-0.3-4.9l-3.9,2.9c-0.8,0.6-1.8,1.3-2.3,2.4c-0.8,1.8-0.1,3.8,1.5,4.6l0,0
				c1.6,0.8,3.7,0,4.5-1.8C95.2,124.5,95.1,123.2,95.1,122.2z"/>
			<linearGradient id="SVGID_28_" gradientUnits="userSpaceOnUse" x1="89.3558" y1="127.5128" x2="97.4089" y2="108.4018">
				<stop  offset="1.226990e-02" style="stop-color:#FFFFFF"/>
				<stop  offset="2.113004e-02" style="stop-color:#FCFDFE"/>
				<stop  offset="0.1158" style="stop-color:#DEEAF7"/>
				<stop  offset="0.2198" style="stop-color:#C6DBF1"/>
				<stop  offset="0.3376" style="stop-color:#B3D0EC"/>
				<stop  offset="0.4754" style="stop-color:#A6C7E9"/>
				<stop  offset="0.6517" style="stop-color:#9EC2E7"/>
				<stop  offset="1" style="stop-color:#9CC1E6"/>
			</linearGradient>
			<path class="st32" d="M91.4,120.1c-0.7,0.5-1.5,1.1-2,2c-0.9,1.4-0.8,3.1,0.2,3.7l0,0c1,0.6,2.5,0,3.4-1.4
				c0.6-0.9,0.7-1.9,0.9-2.7l0.7-3.9L91.4,120.1z"/>
			<g>
				<path class="st20" d="M89.7,125.6L89.7,125.6c-1-0.6-1.1-2.3-0.2-3.8c0.2-0.3,0.6-0.7,0.9-0.9c-0.3,0.3-0.8,0.8-1.1,1.2
					c-0.9,1.5-0.8,3.2,0.2,3.8l0,0c0.8,0.5,2,0.2,2.9-0.8C91.5,125.9,90.5,126.1,89.7,125.6z"/>
			</g>
		</g>
		<g>
			<path class="st28" d="M66.1,124.4l-0.4-6.2l-5,3.6c-1,0.8-2.3,1.7-2.9,3.1c-1,2.3-0.1,4.9,2,5.8l0.1,0c2.1,1,4.7,0,5.8-2.2
				C66.2,127.2,66.1,125.7,66.1,124.4z"/>
			<linearGradient id="SVGID_29_" gradientUnits="userSpaceOnUse" x1="64.8011" y1="121.4768" x2="56.4078" y2="136.2539">
				<stop  offset="0" style="stop-color:#476EB2"/>
				<stop  offset="0.2178" style="stop-color:#7AA2D2"/>
				<stop  offset="0.3926" style="stop-color:#A5CFEE"/>
				<stop  offset="0.9018" style="stop-color:#BADFF5"/>
			</linearGradient>
			<path class="st33" d="M65.8,118.4l-4.7,3.4c-0.9,0.7-2.1,1.6-2.7,2.9c-1,2.1-0.1,4.6,1.8,5.5l0.1,0c2,0.9,4.4,0,5.4-2.1
				c0.6-1.3,0.5-2.7,0.5-3.9L65.8,118.4z"/>
			<linearGradient id="SVGID_30_" gradientUnits="userSpaceOnUse" x1="59.277" y1="130.5622" x2="68.936" y2="107.6401">
				<stop  offset="1.226990e-02" style="stop-color:#FFFFFF"/>
				<stop  offset="2.113004e-02" style="stop-color:#FCFDFE"/>
				<stop  offset="0.1158" style="stop-color:#DEEAF7"/>
				<stop  offset="0.2198" style="stop-color:#C6DBF1"/>
				<stop  offset="0.3376" style="stop-color:#B3D0EC"/>
				<stop  offset="0.4754" style="stop-color:#A6C7E9"/>
				<stop  offset="0.6517" style="stop-color:#9EC2E7"/>
				<stop  offset="1" style="stop-color:#9CC1E6"/>
			</linearGradient>
			<path class="st34" d="M61.7,121.6c-0.8,0.6-1.7,1.3-2.4,2.4c-1,1.7-0.9,3.7,0.2,4.5l0,0c1.2,0.7,3,0,4.1-1.7
				c0.7-1,0.9-2.2,1.1-3.2l0.8-4.7L61.7,121.6z"/>
			<g>
				<path class="st20" d="M59.7,128.2L59.7,128.2c-1.2-0.8-1.3-2.8-0.2-4.6c0.2-0.4,0.7-0.8,1-1.1c-0.4,0.4-1,0.9-1.3,1.4
					c-1.1,1.8-1,3.8,0.2,4.6l0,0c1,0.6,2.4,0.3,3.5-0.9C61.9,128.6,60.6,128.8,59.7,128.2z"/>
			</g>
		</g>
		<g>
			<path class="st28" d="M82,108.5l-0.5-7.7l-6.3,4.5c-1.3,1-2.8,2.1-3.6,3.8c-1.2,2.8-0.1,6.1,2.5,7.3l0.1,0c2.6,1.2,5.8,0,7.2-2.8
				C82.2,112,82.1,110,82,108.5z"/>
			<linearGradient id="SVGID_31_" gradientUnits="userSpaceOnUse" x1="80.4186" y1="104.8231" x2="69.9189" y2="123.3086">
				<stop  offset="0" style="stop-color:#476EB2"/>
				<stop  offset="0.2178" style="stop-color:#7AA2D2"/>
				<stop  offset="0.3926" style="stop-color:#A5CFEE"/>
				<stop  offset="0.9018" style="stop-color:#BADFF5"/>
			</linearGradient>
			<path class="st35" d="M82.1,108.3l-0.5-7.3l-5.9,4.3c-1.2,0.9-2.7,2-3.4,3.6c-1.2,2.7-0.2,5.7,2.3,6.9l0.1,0
				c2.5,1.1,5.5,0,6.8-2.6C82.3,111.6,82.1,109.8,82.1,108.3z"/>
			<linearGradient id="SVGID_32_" gradientUnits="userSpaceOnUse" x1="73.5104" y1="116.19" x2="85.5931" y2="87.5162">
				<stop  offset="1.226990e-02" style="stop-color:#FFFFFF"/>
				<stop  offset="2.113004e-02" style="stop-color:#FCFDFE"/>
				<stop  offset="0.1158" style="stop-color:#DEEAF7"/>
				<stop  offset="0.2198" style="stop-color:#C6DBF1"/>
				<stop  offset="0.3376" style="stop-color:#B3D0EC"/>
				<stop  offset="0.4754" style="stop-color:#A6C7E9"/>
				<stop  offset="0.6517" style="stop-color:#9EC2E7"/>
				<stop  offset="1" style="stop-color:#9CC1E6"/>
			</linearGradient>
			<path class="st36" d="M76.5,105c-1,0.7-2.2,1.6-3,3c-1.3,2.2-1.2,4.6,0.3,5.6l0,0c1.5,0.9,3.8,0,5.1-2.2c0.8-1.3,1.1-2.8,1.3-4
				l1-5.9L76.5,105z"/>
			<g>
				<path class="st20" d="M74.1,113.3L74.1,113.3c-1.5-1-1.6-3.5-0.3-5.7c0.3-0.5,0.9-1,1.3-1.4c-0.5,0.5-1.2,1.1-1.6,1.7
					c-1.3,2.2-1.2,4.8,0.2,5.7l0,0c1.2,0.8,3,0.4,4.3-1.2C76.8,113.7,75.2,114,74.1,113.3z"/>
			</g>
		</g>
		<g>
			<path class="st28" d="M114.5,112.2l-0.7-10.3l-8.4,6c-1.7,1.3-3.8,2.8-4.8,5.1c-1.7,3.8-0.2,8.1,3.3,9.8l0.1,0
				c3.5,1.6,7.8,0,9.6-3.7C114.7,116.8,114.5,114.3,114.5,112.2z"/>
			<linearGradient id="SVGID_33_" gradientUnits="userSpaceOnUse" x1="112.3428" y1="107.2916" x2="98.3495" y2="131.9277">
				<stop  offset="0" style="stop-color:#476EB2"/>
				<stop  offset="0.2178" style="stop-color:#7AA2D2"/>
				<stop  offset="0.3926" style="stop-color:#A5CFEE"/>
				<stop  offset="0.9018" style="stop-color:#BADFF5"/>
			</linearGradient>
			<path class="st37" d="M114.6,111.9l-0.6-9.7l-7.9,5.7c-1.6,1.2-3.5,2.7-4.5,4.8c-1.6,3.6-0.2,7.6,3.1,9.2l0.1,0.1
				c3.3,1.5,7.3,0,9-3.5C114.8,116.3,114.6,113.9,114.6,111.9z"/>
			<linearGradient id="SVGID_34_" gradientUnits="userSpaceOnUse" x1="103.1336" y1="122.4475" x2="119.241" y2="84.2226">
				<stop  offset="1.226990e-02" style="stop-color:#FFFFFF"/>
				<stop  offset="2.113004e-02" style="stop-color:#FCFDFE"/>
				<stop  offset="0.1158" style="stop-color:#DEEAF7"/>
				<stop  offset="0.2198" style="stop-color:#C6DBF1"/>
				<stop  offset="0.3376" style="stop-color:#B3D0EC"/>
				<stop  offset="0.4754" style="stop-color:#A6C7E9"/>
				<stop  offset="0.6517" style="stop-color:#9EC2E7"/>
				<stop  offset="1" style="stop-color:#9CC1E6"/>
			</linearGradient>
			<path class="st38" d="M107.1,107.5c-1.3,1-2.9,2.2-4,3.9c-1.7,2.9-1.6,6.2,0.4,7.4l0.1,0c2,1.2,5,0,6.8-2.9
				c1.1-1.7,1.5-3.7,1.8-5.3l1.4-7.9L107.1,107.5z"/>
			<g>
				<path class="st20" d="M103.9,118.6L103.9,118.6c-2-1.3-2.2-4.7-0.4-7.7c0.4-0.6,1.2-1.4,1.7-1.9c-0.6,0.6-1.6,1.5-2.1,2.3
					c-1.8,3-1.6,6.4,0.3,7.6l0.1,0c1.7,1,3.9,0.5,5.8-1.6C107.5,119.2,105.4,119.5,103.9,118.6z"/>
			</g>
		</g>
		<g>
			<path class="st28" d="M127.3,101.2L127,96l-4.2,3c-0.8,0.7-1.9,1.4-2.4,2.6c-0.8,1.9-0.1,4,1.7,4.9l0.1,0c1.8,0.8,3.9,0,4.8-1.8
				C127.4,103.6,127.4,102.3,127.3,101.2z"/>
			<linearGradient id="SVGID_35_" gradientUnits="userSpaceOnUse" x1="126.2516" y1="98.7823" x2="119.2534" y2="111.1032">
				<stop  offset="0" style="stop-color:#476EB2"/>
				<stop  offset="0.2178" style="stop-color:#7AA2D2"/>
				<stop  offset="0.3926" style="stop-color:#A5CFEE"/>
				<stop  offset="0.9018" style="stop-color:#BADFF5"/>
			</linearGradient>
			<path class="st39" d="M127.4,101.1l-0.3-4.9l-3.9,2.9c-0.8,0.6-1.8,1.3-2.3,2.4c-0.8,1.8-0.1,3.8,1.5,4.6l0,0
				c1.6,0.8,3.6,0,4.5-1.8C127.5,103.3,127.4,102.1,127.4,101.1z"/>
			<linearGradient id="SVGID_36_" gradientUnits="userSpaceOnUse" x1="121.6489" y1="106.3548" x2="129.7018" y2="87.2442">
				<stop  offset="1.226990e-02" style="stop-color:#FFFFFF"/>
				<stop  offset="2.113004e-02" style="stop-color:#FCFDFE"/>
				<stop  offset="0.1158" style="stop-color:#DEEAF7"/>
				<stop  offset="0.2198" style="stop-color:#C6DBF1"/>
				<stop  offset="0.3376" style="stop-color:#B3D0EC"/>
				<stop  offset="0.4754" style="stop-color:#A6C7E9"/>
				<stop  offset="0.6517" style="stop-color:#9EC2E7"/>
				<stop  offset="1" style="stop-color:#9CC1E6"/>
			</linearGradient>
			<path class="st40" d="M123.6,98.9c-0.6,0.5-1.5,1.1-2,2c-0.9,1.4-0.8,3.1,0.2,3.7l0,0c1,0.6,2.5,0,3.4-1.4
				c0.6-0.9,0.7-1.9,0.9-2.7l0.7-3.9L123.6,98.9z"/>
			<g>
				<path class="st20" d="M122,104.4L122,104.4c-1-0.6-1.1-2.3-0.2-3.8c0.2-0.3,0.6-0.7,0.8-0.9c-0.3,0.3-0.8,0.7-1.1,1.2
					c-0.9,1.5-0.8,3.2,0.1,3.8l0,0c0.8,0.5,2,0.2,2.9-0.8C123.8,104.7,122.8,104.9,122,104.4z"/>
			</g>
		</g>
		<g>
			<path class="st28" d="M98.4,103.2L97.9,97l-5,3.6c-1,0.8-2.3,1.7-2.9,3.1c-1,2.3-0.1,4.9,2,5.9l0.1,0c2.1,1,4.7,0,5.8-2.2
				C98.5,106.1,98.4,104.5,98.4,103.2z"/>
			<linearGradient id="SVGID_37_" gradientUnits="userSpaceOnUse" x1="97.0886" y1="100.3141" x2="88.6886" y2="115.1028">
				<stop  offset="0" style="stop-color:#476EB2"/>
				<stop  offset="0.2178" style="stop-color:#7AA2D2"/>
				<stop  offset="0.3926" style="stop-color:#A5CFEE"/>
				<stop  offset="0.9018" style="stop-color:#BADFF5"/>
			</linearGradient>
			<path class="st41" d="M98,97.2l-4.7,3.4c-0.9,0.7-2.1,1.6-2.7,2.9c-0.9,2.1-0.1,4.6,1.8,5.5l0.1,0c2,0.9,4.4,0,5.4-2.1
				c0.6-1.3,0.5-2.7,0.5-3.9L98,97.2z"/>
			<linearGradient id="SVGID_38_" gradientUnits="userSpaceOnUse" x1="91.5619" y1="109.4091" x2="101.2279" y2="86.4705">
				<stop  offset="1.226990e-02" style="stop-color:#FFFFFF"/>
				<stop  offset="2.113004e-02" style="stop-color:#FCFDFE"/>
				<stop  offset="0.1158" style="stop-color:#DEEAF7"/>
				<stop  offset="0.2198" style="stop-color:#C6DBF1"/>
				<stop  offset="0.3376" style="stop-color:#B3D0EC"/>
				<stop  offset="0.4754" style="stop-color:#A6C7E9"/>
				<stop  offset="0.6517" style="stop-color:#9EC2E7"/>
				<stop  offset="1" style="stop-color:#9CC1E6"/>
			</linearGradient>
			<path class="st42" d="M93.9,100.5c-0.8,0.6-1.7,1.3-2.4,2.4c-1,1.7-0.9,3.7,0.2,4.5l0,0c1.2,0.7,3,0,4.1-1.7
				c0.7-1,0.9-2.2,1.1-3.2l0.8-4.7L93.9,100.5z"/>
			<g>
				<path class="st20" d="M92,107.1L92,107.1c-1.2-0.8-1.3-2.8-0.2-4.6c0.2-0.4,0.7-0.8,1-1.1c-0.4,0.4-1,0.9-1.3,1.4
					c-1.1,1.8-1,3.8,0.2,4.6l0,0c1,0.6,2.4,0.3,3.5-0.9C94.2,107.4,92.9,107.7,92,107.1z"/>
			</g>
		</g>
		<g>
			<path class="st28" d="M114.3,87.3l-0.6-7.7l-6.3,4.5c-1.3,1-2.8,2.1-3.6,3.8c-1.3,2.8-0.1,6.1,2.5,7.3l0.1,0
				c2.6,1.2,5.8,0,7.2-2.8C114.5,90.8,114.4,88.9,114.3,87.3z"/>
			<linearGradient id="SVGID_39_" gradientUnits="userSpaceOnUse" x1="112.7066" y1="83.669" x2="102.2128" y2="102.1441">
				<stop  offset="0" style="stop-color:#476EB2"/>
				<stop  offset="0.2178" style="stop-color:#7AA2D2"/>
				<stop  offset="0.3926" style="stop-color:#A5CFEE"/>
				<stop  offset="0.9018" style="stop-color:#BADFF5"/>
			</linearGradient>
			<path class="st43" d="M114.4,87.1l-0.5-7.3l-5.9,4.3c-1.2,0.9-2.7,2-3.4,3.6c-1.2,2.7-0.2,5.7,2.3,6.9l0.1,0
				c2.5,1.2,5.5,0,6.8-2.6C114.5,90.4,114.4,88.6,114.4,87.1z"/>
			<linearGradient id="SVGID_40_" gradientUnits="userSpaceOnUse" x1="105.7967" y1="95.0377" x2="117.8796" y2="66.3632">
				<stop  offset="1.226990e-02" style="stop-color:#FFFFFF"/>
				<stop  offset="2.113004e-02" style="stop-color:#FCFDFE"/>
				<stop  offset="0.1158" style="stop-color:#DEEAF7"/>
				<stop  offset="0.2198" style="stop-color:#C6DBF1"/>
				<stop  offset="0.3376" style="stop-color:#B3D0EC"/>
				<stop  offset="0.4754" style="stop-color:#A6C7E9"/>
				<stop  offset="0.6517" style="stop-color:#9EC2E7"/>
				<stop  offset="1" style="stop-color:#9CC1E6"/>
			</linearGradient>
			<path class="st44" d="M108.8,83.8c-1,0.7-2.2,1.6-3,2.9c-1.3,2.2-1.2,4.7,0.3,5.6l0,0c1.5,0.9,3.7,0,5.1-2.2
				c0.8-1.3,1.1-2.8,1.3-4l1-5.9L108.8,83.8z"/>
			<g>
				<path class="st20" d="M106.4,92.1L106.4,92.1c-1.5-1-1.6-3.5-0.3-5.7c0.3-0.5,0.9-1,1.3-1.4c-0.5,0.4-1.2,1.1-1.6,1.7
					c-1.3,2.2-1.2,4.8,0.2,5.7l0,0c1.2,0.8,3,0.4,4.3-1.2C109,92.6,107.5,92.9,106.4,92.1z"/>
			</g>
		</g>
	</g>
</g>
</svg>
